<svg viewBox="64 64 896 896" focusable="false" data-icon="rocket" width="1em" height="1em" fill="#0061ff" aria-hidden="true" xmlns="http://www.w3.org/2000/svg">
  <path d="M880.8 741.8L616.4 477.4c29.1-59 39.8-124.9 29.3-191.7-18.7-118.8-112.5-212.8-231.2-231.6-47.5-7.5-95.2-4.5-139.6 7.4 34.1 66 31 144.1-9.2 208.2-18.6 29.7-43.5 56-73.4 77.2-17.6 12.5-19 38.3-2.9 52.6l236 210.4c1.6 1.4 3.4 2.5 5.3 3.3 0.6 0.2 1.2 0.4 1.8 0.5 4.9 1.4 10.2 0.3 14.3-2.9 29.9-23.2 64.9-32.9 99.4-27.4 66.8 10.6 126.1 53.6 156.4 113.3l177.3 177.3c15.1 15.1 41.5 12.5 53.3-5.4l26.9-40.8c9.5-14.4 7-33.8-5.3-46zM418.1 513.8L215.7 333.3c35.2-19.1 65.1-45.9 86.8-77.8 28.6-42.2 38.2-93.5 28.5-143.1 55.6 12.3 105.1 42 140.6 86 37.1 45.9 55.4 104.2 51.2 162.7-2.3 32.8-11.2 64.3-26.1 93l-18.4 34.6-28.8-25.7c-9.8-8.6-24.6-7.8-33.5 1.7L418 512.6c-0.1 0.2-0.1 0.3 0.1 1.2z"></path>
</svg>